<svg xmlns="http://www.w3.org/2000/svg" viewBox="0 0 480 480" fill="none" shape-rendering="auto"><desc>"Custom Avatar" by "Ashley Seo", licensed under "CC BY 4.0". / Remix of the original. - Created with dicebear.com</desc><metadata xmlns:dc="http://purl.org/dc/elements/1.1/" xmlns:cc="http://creativecommons.org/ns#" xmlns:rdf="http://www.w3.org/1999/02/22-rdf-syntax-ns#"><rdf:RDF><cc:Work><dc:title>Custom Avatar</dc:title><dc:creator><cc:Agent rdf:about="http://www.ashleyseo.com/"><dc:title>Ashley Seo</dc:title></cc:Agent></dc:creator><dc:source>https://www.figma.com/community/file/881358461963645496</dc:source><cc:license rdf:resource="https://creativecommons.org/licenses/by/4.0/" /></cc:Work></rdf:RDF></metadata><mask id="viewboxMask"><rect width="480" height="480" rx="0" ry="0" x="0" y="0" fill="#fff" /></mask><g mask="url(#viewboxMask)"><g transform="matrix(.85775 0 0 .85427 52 47)"><path d="M264 38.6s131.4 20.6 121.4 208.1c0 .7 15.2 10.9 16.4 12a77.1 77.1 0 0 1 23.4 36.3c13.9 51.3-35.7 104.2-75.8 118.2a155 155 0 0 1-46.7 8.3c-103.1 3-239.7-62.7-246.7-191a202.7 202.7 0 0 1 15.1-83.9c0 .1 57.4-142.5 192.9-108Z" fill="#efcc9f"/><path d="M388.7 248.7a57 57 0 0 0-3.2 10.5 40 40 0 0 0 8.5 30.4 42.3 42.3 0 0 0 33 15.7c-3.2-31.7-29-50.7-38.3-56.6ZM203.5 332c24.4-5.2 39.6-31 33.9-57.5-5.7-26.5-30.2-43.7-54.6-38.5-24.4 5.3-39.5 31-33.8 57.6 5.7 26.5 30.1 43.7 54.5 38.5Z" fill="#DC2400" style="mix-blend-mode:multiply" opacity=".1"/><path opacity=".1" d="M323 257.9s20.9-19.9 37-1.2Z" fill="#000"/><path d="M128.7 356.9C59.3 391.7-3.7 304.4 16.5 255.3c12.9-31.4 50.4-33.8 72.1-5.2a185 185 0 0 1 29.1 59.1" fill="#efcc9f"/><path opacity=".1" d="M71.5 279c9 9 16.1 22.5 25 30-1.7-12.5-4.3-26-10.4-37.3-6.2-11.6-17.5-21-29-20.3-14.2 1-25.9 17.6-27.4 32.6 1-9 19-15 25.9-14.2 10.8 20.4 15 60.6 15 60.6 9-22.7 5.4-40.7 1-51.5Z" fill="#000"/></g><g transform="matrix(.85472 0 0 .855 19 -17)"><path d="M385.3 380.4c9.4.2 18.3-2.5 26-10.5 4-4.2 8.2-6.5 14-3 13.9 8.7 17.1 30.2 13.4 44.6a63.3 63.3 0 0 1-30.7 36.8c-38.2 22.4-67.6 17.4-106.8 3-30.8-11.2-72.5-33.9-62-72.9 13.2-48.3 69.6-25 101.4-12 13.5 5.5 29.6 13.5 44.7 14Z" fill="#fff"/><mask id="mouthTeethSmile-a" style="mask-type:alpha" maskUnits="userSpaceOnUse" x="237" y="349" width="204" height="115"><path d="M385.3 380.4c9.4.2 18.3-2.5 26-10.5 4-4.2 8.2-6.5 14-3 13.9 8.7 17.1 30.2 13.4 44.6a63.3 63.3 0 0 1-30.7 36.8c-38.2 22.4-67.6 17.4-106.8 3-30.8-11.2-72.5-33.9-62-72.9 13.2-48.3 69.6-25 101.4-12 13.5 5.5 29.6 13.5 44.7 14Z" fill="#fff"/></mask><g mask="url(#mouthTeethSmile-a)"><path fill-rule="evenodd" clip-rule="evenodd" d="m257.6 434 40-101.1 5.6 2.2-40 101.1-5.6-2.2Zm82.3 32.7 27.7-106.1 5.8 1.5-27.7 106.1-5.8-1.5Zm82.4-25.6L407 363.3l6-1.2 15.2 77.8-5.9 1.2Z" fill="#D1D3D4"/></g></g><g transform="matrix(.85472 0 0 .855 19 -17)"><path d="M330.2 300.5c0 11.9-6.2 21.5-19.1 19.5-9.3-2.5-15.5-9-15.5-21.5 0-13 7.7-21.5 15.5-21.5 10.6 0 19.1 11.6 19 23.5ZM396.4 293c5.6.3 13.4-.3 18.7-3.9 1.8 3.3 3 7.4 3 11.2-.1 8-3.7 16.5-13 15.5-7.7-.8-9.6-11-9.6-16 0-2.4.3-4.7.9-6.8Z" fill="#2A1200"/><path d="M332 238.1a43.9 43.9 0 0 0-37.7 14.6c-3 3.4-3.8 9.4-.3 13 3.2 3.4 8.8 4.3 12 .6 1-1.1 2-2.2 3.1-3.1l1.6-1.3.5-.4a37.7 37.7 0 0 1 5.8-3.2l1.8-.6a34.5 34.5 0 0 1 5.8-1.3h.5l2-.1 4.3.3c4.4.6 8.8-4 8.8-8.7 0-5.3-3.4-9.2-8.2-9.8ZM419.5 276c-7.4 4.1-16 5-23.6 2.8-2-.6-4-2.4-4.9-4.4-.8-2-1-4.8-.2-7a10 10 0 0 1 4.6-5.3 9 9 0 0 1 6.7-.7l1 .3h3.6c1.4-.1 2.8-.5 4.2-1l1.5-.6c2-1.1 4.6-1.4 6.6-.7 2 .6 4 2.3 4.9 4.4.8 2 1 4.6.2 6.9-1 2.3-2.5 4.2-4.6 5.4Z" fill="#71472D"/></g><g transform="matrix(.85472 0 0 .85667 18 -15)"><path d="M351 167c-32.5 45-106 137.5-207 170.5a44.3 44.3 0 0 0-41-23.5c-27.5.5-37.5 20.5-37.5 20.5s-32 53.5 42 87.5c20.5 4 27 4 43.5-3 11.2 8.7 46.6 38.2 59 43-3.2 16.8-8.8 58.8-1.2 78-14.5 1.3-49.8 8.7-77.8-6.5-2.8-17.1-5.3-39.5-.9-48-5.3 8.5-14.8 28.2-14.8 39.5-16-5.5-51.6-20.8-66-38C27 382 19 127.5 245 106c19.8-2.3 70.4-.3 104 22.5C391 157 412 195 420 233c-17.2-8-55-32.4-69-66ZM433.5 525c-6.8-9.6-2.8-53.2 0-68-28 23.5-44.5 35-102 36.5 10 15 49 20.5 53.5 22.5l8-5.5v8a215 215 0 0 0 40.5 6.5Z" fill="#220f00"/><mask id="hairStraightHair-a" style="mask-type:alpha" maskUnits="userSpaceOnUse" x="245" y="105" width="176" height="128"><path d="M346.5 127.5C313 104.7 264.8 103.7 245 106c5.5 29.7 22.4 92.8 69 108 13.7-17.7 30-34.2 37-47 14 33.6 51.8 58 69 66-8-38-31.5-77-73.5-105.5Z" fill="#E2BA87"/></mask><g mask="url(#hairStraightHair-a)"><path d="M339 161.8s-8.3-9.8-26.4-8.2c0 0 12.8-7 21-6 0 0-22.5-16.8-55.6-6.2 0 0 23.3-16.4 41.8-14.3 0 0-19.6-8.6-32-6.5 0 0 9.8-12.3 22.5-12 0 0-10.1-17.9-26-23.6 0 0 31.7 9 40 15.5 18.4 7.8 35.3 30.7 35.3 30.7-5.6-3.3-14.7-2.5-14.7-2.5 14.7 9 26 25.8 26 25.8-7.1-5-15.8-3.3-15.8-3.3a76.7 76.7 0 0 1 18.4 31.9c-1.8-5.7-15.4-12.7-15.4-12.7a71.7 71.7 0 0 1 6.4 24.5l-11.3-14.7s-23 19.2-29 21.7c0 0 17.4-18 18.5-26.2 0 0-26 7-46.7 9.8 0 0 29-22 43-23.7Z" fill="#000" fill-opacity=".2"/></g><path d="M281 211c-14 17.7-59.6 60.6-130 91 22.3-14 79.6-51.8 130-91ZM95 302c40.8-86.4 123.7-135.3 160-149-93.6 16-156 108.3-175.5 152.5 3.6-1.6 11.8-3 15.5-3.5ZM74 406.5c2 2.5 7.8 6.4 11 8-1.3 22-3.2 64.5-2.2 83.3-2-18.9-4.5-50.8-3.8-68.3-3.7 13.3-9.9 17.8-5.5 73-4.7-35.7-11.9-74.4.5-96ZM408.5 476.5c2.8-1.2 7.5-4.5 9.5-6-3.6 6-2.2 36.2-1 50.5-2.4-2-4-9.5-4.5-13-1.6 5.2-4.7 5.5-4 13-4.4-10-.5-28.5 0-44.5ZM183.5 468.5c-4.8 43.6-2.5 55.5 1.5 74h-20c-7.2-35.2 11.2-52 18.5-74Z" fill="#000" fill-opacity=".2"/></g><g transform="matrix(.85472 0 0 .85667 14 -12)"><g fill-rule="evenodd" clip-rule="evenodd"><path d="m479 283.3-49-1.8-.5-10.5 49.8 2.3-.2 10Z" fill="#896307"/><path d="M304 220.7c-27.2 4.3-46 32.2-41.2 63 4.9 30.9 31.4 51.6 58.6 47.3 27.2-4.3 46.1-32.2 41.3-63-4.9-30.8-31.4-51.6-58.6-47.3ZM252.2 273c.5-30.6 20.9-57.4 50.3-62 33.3-5.3 64.4 20 70 55.6l3.3-1.2a27 27 0 0 1 13-.7c.6-12.5 4.2-24 10.2-33a40.6 40.6 0 0 1 31.5-19.8 42 42 0 0 1 34 16.3 70.9 70.9 0 0 1 15.8 40.8 69 69 0 0 1-10 42.3 40.6 40.6 0 0 1-31.6 19.7 42 42 0 0 1-34-16.2A70.6 70.6 0 0 1 389 275c-3.4-1.4-7-1.2-10.4-.2-2.1.6-4 1.5-5.3 2.2.3 31.3-20.3 59-50.3 63.8-33.4 5.2-64.4-20.1-70-55.6a73 73 0 0 1-.3-2.2l-86.4-14a102.2 102.2 0 0 0-44.4 2.6c-12 4-18.3 18.8-18.5 28l-9.9-.2c.3-15.3 11.4-32.6 25.3-37.3 13.8-4.6 31.7-5.3 48.8-3v.1l84.6 13.6Zm155-35.8a59 59 0 0 0-8.4 36c1 14.1 6.1 26.5 13.4 35 7.3 8.7 16.6 13.3 26 12.8 9.3-.5 17.8-6 23.8-15.2a59 59 0 0 0 8.4-36.1c-1-14.1-6-26.5-13.4-35-7.3-8.6-16.5-13.3-26-12.8-9.3.5-17.7 6-23.8 15.3Z" fill="#C5900F"/></g></g></g></svg>